<mxfile host="Electron" agent="Mozilla/5.0 (Macintosh; Intel Mac OS X 10_15_7) AppleWebKit/537.36 (KHTML, like Gecko) draw.io/28.1.2 Chrome/138.0.7204.243 Electron/37.4.0 Safari/537.36" version="28.1.2" pages="4">
  <diagram name="Context" id="sLxrQWmzXwNdSYD7HQOw">
    <mxGraphModel dx="1018" dy="777" grid="1" gridSize="10" guides="1" tooltips="1" connect="1" arrows="1" fold="1" page="1" pageScale="1" pageWidth="827" pageHeight="1169" math="0" shadow="0">
      <root>
        <mxCell id="0" />
        <mxCell id="1" parent="0" />
        <mxCell id="Xdn2FdyX1lLkw3yutABi-1" value="" style="rounded=0;whiteSpace=wrap;html=1;" parent="1" vertex="1">
          <mxGeometry x="100" y="180" width="690" height="580" as="geometry" />
        </mxCell>
        <mxCell id="Xdn2FdyX1lLkw3yutABi-5" value="" style="edgeStyle=orthogonalEdgeStyle;rounded=0;orthogonalLoop=1;jettySize=auto;html=1;" parent="1" source="Xdn2FdyX1lLkw3yutABi-2" target="Xdn2FdyX1lLkw3yutABi-4" edge="1">
          <mxGeometry relative="1" as="geometry" />
        </mxCell>
        <mxCell id="Xdn2FdyX1lLkw3yutABi-2" value="Notification&lt;div&gt;&amp;nbsp;Producer&lt;/div&gt;" style="rounded=0;whiteSpace=wrap;html=1;" parent="1" vertex="1">
          <mxGeometry x="130" y="270" width="120" height="60" as="geometry" />
        </mxCell>
        <mxCell id="Xdn2FdyX1lLkw3yutABi-3" value="Notification&lt;div&gt;&amp;nbsp;Consumer&lt;/div&gt;" style="rounded=0;whiteSpace=wrap;html=1;" parent="1" vertex="1">
          <mxGeometry x="600" y="270" width="120" height="60" as="geometry" />
        </mxCell>
        <mxCell id="Xdn2FdyX1lLkw3yutABi-6" style="edgeStyle=orthogonalEdgeStyle;rounded=0;orthogonalLoop=1;jettySize=auto;html=1;" parent="1" source="Xdn2FdyX1lLkw3yutABi-4" target="Xdn2FdyX1lLkw3yutABi-3" edge="1">
          <mxGeometry relative="1" as="geometry" />
        </mxCell>
        <mxCell id="Xdn2FdyX1lLkw3yutABi-4" value="Notification&lt;div&gt;&amp;nbsp;Engine&lt;/div&gt;" style="rounded=0;whiteSpace=wrap;html=1;" parent="1" vertex="1">
          <mxGeometry x="365" y="270" width="120" height="60" as="geometry" />
        </mxCell>
        <mxCell id="mWZFT-UT04ftLM6CYA2_-1" value="Notification Engine" style="rounded=0;whiteSpace=wrap;html=1;labelPosition=center;verticalLabelPosition=top;align=center;verticalAlign=bottom;fontStyle=1" parent="1" vertex="1">
          <mxGeometry x="294" y="390" width="236" height="360" as="geometry" />
        </mxCell>
        <mxCell id="mWZFT-UT04ftLM6CYA2_-2" value="Notiwise Admin" style="rounded=1;whiteSpace=wrap;html=1;" parent="1" vertex="1">
          <mxGeometry x="350" y="410" width="120" height="60" as="geometry" />
        </mxCell>
        <mxCell id="mWZFT-UT04ftLM6CYA2_-3" value="Notiwise Manager" style="rounded=1;whiteSpace=wrap;html=1;" parent="1" vertex="1">
          <mxGeometry x="354" y="500" width="120" height="60" as="geometry" />
        </mxCell>
        <mxCell id="mWZFT-UT04ftLM6CYA2_-4" value="Notiwise Query Engine" style="rounded=1;whiteSpace=wrap;html=1;" parent="1" vertex="1">
          <mxGeometry x="352" y="590" width="120" height="60" as="geometry" />
        </mxCell>
        <mxCell id="iBVhPwzpYpp6W6WrsKmM-1" value="Notiwise Event Processor" style="rounded=1;whiteSpace=wrap;html=1;" vertex="1" parent="1">
          <mxGeometry x="352" y="675" width="120" height="60" as="geometry" />
        </mxCell>
      </root>
    </mxGraphModel>
  </diagram>
  <diagram id="o6Yee_JOQpYrt_m-W2o1" name="Notiwise-AdminAOD">
    <mxGraphModel dx="1018" dy="777" grid="1" gridSize="10" guides="1" tooltips="1" connect="1" arrows="1" fold="1" page="1" pageScale="1" pageWidth="827" pageHeight="1169" math="0" shadow="0">
      <root>
        <mxCell id="0" />
        <mxCell id="1" parent="0" />
        <mxCell id="onnypWVOFsiKPNZFNyCE-1" value="" style="rounded=0;whiteSpace=wrap;html=1;" parent="1" vertex="1">
          <mxGeometry x="40" y="20" width="760" height="560" as="geometry" />
        </mxCell>
        <mxCell id="YWfVXzP9oYVL_TDURMMp-3" value="" style="edgeStyle=orthogonalEdgeStyle;rounded=0;orthogonalLoop=1;jettySize=auto;html=1;exitX=1;exitY=0.25;exitDx=0;exitDy=0;" parent="1" source="YWfVXzP9oYVL_TDURMMp-1" target="YWfVXzP9oYVL_TDURMMp-2" edge="1">
          <mxGeometry relative="1" as="geometry" />
        </mxCell>
        <mxCell id="YWfVXzP9oYVL_TDURMMp-18" style="edgeStyle=orthogonalEdgeStyle;rounded=0;orthogonalLoop=1;jettySize=auto;html=1;entryX=0;entryY=0.5;entryDx=0;entryDy=0;exitX=0.75;exitY=1;exitDx=0;exitDy=0;" parent="1" source="YWfVXzP9oYVL_TDURMMp-1" target="YWfVXzP9oYVL_TDURMMp-10" edge="1">
          <mxGeometry relative="1" as="geometry" />
        </mxCell>
        <mxCell id="YWfVXzP9oYVL_TDURMMp-24" style="edgeStyle=orthogonalEdgeStyle;rounded=0;orthogonalLoop=1;jettySize=auto;html=1;entryX=0;entryY=0.5;entryDx=0;entryDy=0;exitX=1;exitY=0.75;exitDx=0;exitDy=0;" parent="1" source="YWfVXzP9oYVL_TDURMMp-1" target="YWfVXzP9oYVL_TDURMMp-13" edge="1">
          <mxGeometry relative="1" as="geometry" />
        </mxCell>
        <mxCell id="YWfVXzP9oYVL_TDURMMp-1" value="Notiwise&amp;nbsp;&lt;div&gt;Admin Portal&lt;/div&gt;" style="rounded=0;whiteSpace=wrap;html=1;" parent="1" vertex="1">
          <mxGeometry x="140" y="141" width="120" height="60" as="geometry" />
        </mxCell>
        <mxCell id="YWfVXzP9oYVL_TDURMMp-7" style="edgeStyle=orthogonalEdgeStyle;rounded=0;orthogonalLoop=1;jettySize=auto;html=1;exitX=1;exitY=0.5;exitDx=0;exitDy=0;" parent="1" source="YWfVXzP9oYVL_TDURMMp-2" target="YWfVXzP9oYVL_TDURMMp-4" edge="1">
          <mxGeometry relative="1" as="geometry" />
        </mxCell>
        <mxCell id="YWfVXzP9oYVL_TDURMMp-9" style="edgeStyle=orthogonalEdgeStyle;rounded=0;orthogonalLoop=1;jettySize=auto;html=1;" parent="1" source="YWfVXzP9oYVL_TDURMMp-2" target="YWfVXzP9oYVL_TDURMMp-8" edge="1">
          <mxGeometry relative="1" as="geometry" />
        </mxCell>
        <mxCell id="YWfVXzP9oYVL_TDURMMp-17" style="edgeStyle=orthogonalEdgeStyle;rounded=0;orthogonalLoop=1;jettySize=auto;html=1;entryX=0.142;entryY=-0.008;entryDx=0;entryDy=0;exitX=1;exitY=0.75;exitDx=0;exitDy=0;entryPerimeter=0;" parent="1" source="YWfVXzP9oYVL_TDURMMp-2" target="YWfVXzP9oYVL_TDURMMp-14" edge="1">
          <mxGeometry relative="1" as="geometry" />
        </mxCell>
        <mxCell id="YWfVXzP9oYVL_TDURMMp-2" value="Notiwise&amp;nbsp;&lt;div&gt;Admin Service&lt;/div&gt;" style="rounded=0;whiteSpace=wrap;html=1;" parent="1" vertex="1">
          <mxGeometry x="364" y="141" width="120" height="60" as="geometry" />
        </mxCell>
        <mxCell id="YWfVXzP9oYVL_TDURMMp-15" style="edgeStyle=orthogonalEdgeStyle;rounded=0;orthogonalLoop=1;jettySize=auto;html=1;" parent="1" source="YWfVXzP9oYVL_TDURMMp-4" target="YWfVXzP9oYVL_TDURMMp-14" edge="1">
          <mxGeometry relative="1" as="geometry" />
        </mxCell>
        <mxCell id="YWfVXzP9oYVL_TDURMMp-4" value="Notification&lt;div&gt;CLient ODS&lt;/div&gt;" style="shape=cylinder3;whiteSpace=wrap;html=1;boundedLbl=1;backgroundOutline=1;size=15;" parent="1" vertex="1">
          <mxGeometry x="590" y="131" width="60" height="80" as="geometry" />
        </mxCell>
        <mxCell id="YWfVXzP9oYVL_TDURMMp-8" value="Reference Data" style="shape=cylinder3;whiteSpace=wrap;html=1;boundedLbl=1;backgroundOutline=1;size=15;" parent="1" vertex="1">
          <mxGeometry x="394" y="20" width="60" height="80" as="geometry" />
        </mxCell>
        <mxCell id="YWfVXzP9oYVL_TDURMMp-10" value="Notiwise&amp;nbsp;&lt;div&gt;Billing Service&lt;/div&gt;" style="rounded=0;whiteSpace=wrap;html=1;" parent="1" vertex="1">
          <mxGeometry x="364" y="390" width="120" height="60" as="geometry" />
        </mxCell>
        <mxCell id="YWfVXzP9oYVL_TDURMMp-11" value="Data Warehouse" style="shape=cylinder3;whiteSpace=wrap;html=1;boundedLbl=1;backgroundOutline=1;size=15;" parent="1" vertex="1">
          <mxGeometry x="590" y="460" width="60" height="80" as="geometry" />
        </mxCell>
        <mxCell id="YWfVXzP9oYVL_TDURMMp-19" style="edgeStyle=orthogonalEdgeStyle;rounded=0;orthogonalLoop=1;jettySize=auto;html=1;entryX=0;entryY=0.75;entryDx=0;entryDy=0;" parent="1" source="YWfVXzP9oYVL_TDURMMp-13" target="YWfVXzP9oYVL_TDURMMp-14" edge="1">
          <mxGeometry relative="1" as="geometry" />
        </mxCell>
        <mxCell id="YWfVXzP9oYVL_TDURMMp-13" value="Notiwise&amp;nbsp;&lt;div&gt;Payment Service&lt;/div&gt;" style="rounded=0;whiteSpace=wrap;html=1;" parent="1" vertex="1">
          <mxGeometry x="364" y="260" width="120" height="60" as="geometry" />
        </mxCell>
        <mxCell id="YWfVXzP9oYVL_TDURMMp-16" style="edgeStyle=orthogonalEdgeStyle;rounded=0;orthogonalLoop=1;jettySize=auto;html=1;" parent="1" source="YWfVXzP9oYVL_TDURMMp-14" target="YWfVXzP9oYVL_TDURMMp-11" edge="1">
          <mxGeometry relative="1" as="geometry" />
        </mxCell>
        <mxCell id="YWfVXzP9oYVL_TDURMMp-14" value="Admin&amp;nbsp;&lt;div&gt;KAFKA&lt;/div&gt;" style="rounded=0;whiteSpace=wrap;html=1;" parent="1" vertex="1">
          <mxGeometry x="560" y="290" width="120" height="60" as="geometry" />
        </mxCell>
        <mxCell id="YWfVXzP9oYVL_TDURMMp-21" value="&lt;div&gt;Billing&lt;/div&gt;&lt;div&gt;RDS&lt;/div&gt;" style="shape=cylinder3;whiteSpace=wrap;html=1;boundedLbl=1;backgroundOutline=1;size=15;" parent="1" vertex="1">
          <mxGeometry x="510" y="458" width="60" height="80" as="geometry" />
        </mxCell>
        <mxCell id="YWfVXzP9oYVL_TDURMMp-23" style="edgeStyle=orthogonalEdgeStyle;rounded=0;orthogonalLoop=1;jettySize=auto;html=1;exitX=1;exitY=0.5;exitDx=0;exitDy=0;entryX=0.5;entryY=0;entryDx=0;entryDy=0;entryPerimeter=0;" parent="1" source="YWfVXzP9oYVL_TDURMMp-10" target="YWfVXzP9oYVL_TDURMMp-21" edge="1">
          <mxGeometry relative="1" as="geometry" />
        </mxCell>
      </root>
    </mxGraphModel>
  </diagram>
  <diagram id="2T6-byQNk82GmsBbKa6K" name="Notiwise_Processor_AOD">
    <mxGraphModel dx="1018" dy="777" grid="1" gridSize="10" guides="1" tooltips="1" connect="1" arrows="1" fold="1" page="1" pageScale="1" pageWidth="827" pageHeight="1169" math="0" shadow="0">
      <root>
        <mxCell id="0" />
        <mxCell id="1" parent="0" />
        <mxCell id="MrYGnYUrnat0vYnZzUgt-1" value="" style="rounded=0;whiteSpace=wrap;html=1;" parent="1" vertex="1">
          <mxGeometry x="40" y="20" width="760" height="620" as="geometry" />
        </mxCell>
        <mxCell id="PvigjKCDXW0jv5FIJRWV-2" value="" style="edgeStyle=orthogonalEdgeStyle;rounded=0;orthogonalLoop=1;jettySize=auto;html=1;" parent="1" source="MrYGnYUrnat0vYnZzUgt-2" target="PvigjKCDXW0jv5FIJRWV-1" edge="1">
          <mxGeometry relative="1" as="geometry" />
        </mxCell>
        <mxCell id="wWt6oeYKXyy8oI-9NvCh-2" value="" style="edgeStyle=orthogonalEdgeStyle;rounded=0;orthogonalLoop=1;jettySize=auto;html=1;" parent="1" source="MrYGnYUrnat0vYnZzUgt-2" target="wWt6oeYKXyy8oI-9NvCh-1" edge="1">
          <mxGeometry relative="1" as="geometry" />
        </mxCell>
        <mxCell id="wWt6oeYKXyy8oI-9NvCh-22" style="edgeStyle=orthogonalEdgeStyle;rounded=0;orthogonalLoop=1;jettySize=auto;html=1;" parent="1" source="MrYGnYUrnat0vYnZzUgt-2" target="MrYGnYUrnat0vYnZzUgt-3" edge="1">
          <mxGeometry relative="1" as="geometry" />
        </mxCell>
        <mxCell id="uTDoMGG9GF4xLGnv7HvY-2" style="edgeStyle=orthogonalEdgeStyle;rounded=0;orthogonalLoop=1;jettySize=auto;html=1;" edge="1" parent="1" source="MrYGnYUrnat0vYnZzUgt-2" target="uTDoMGG9GF4xLGnv7HvY-1">
          <mxGeometry relative="1" as="geometry" />
        </mxCell>
        <mxCell id="MrYGnYUrnat0vYnZzUgt-2" value="Notification&amp;nbsp;&lt;div&gt;Controller&lt;/div&gt;" style="rounded=0;whiteSpace=wrap;html=1;" parent="1" vertex="1">
          <mxGeometry x="280" y="130" width="120" height="60" as="geometry" />
        </mxCell>
        <mxCell id="MrYGnYUrnat0vYnZzUgt-3" value="Schema&amp;nbsp;&lt;div&gt;Repository&lt;/div&gt;" style="rounded=1;whiteSpace=wrap;html=1;" parent="1" vertex="1">
          <mxGeometry x="280" y="30" width="120" height="60" as="geometry" />
        </mxCell>
        <mxCell id="PvigjKCDXW0jv5FIJRWV-1" value="Notification&amp;nbsp;&lt;div&gt;Portal&lt;/div&gt;" style="rounded=0;whiteSpace=wrap;html=1;" parent="1" vertex="1">
          <mxGeometry x="80" y="130" width="120" height="60" as="geometry" />
        </mxCell>
        <mxCell id="wWt6oeYKXyy8oI-9NvCh-4" value="" style="edgeStyle=orthogonalEdgeStyle;rounded=0;orthogonalLoop=1;jettySize=auto;html=1;exitX=0.183;exitY=1.033;exitDx=0;exitDy=0;exitPerimeter=0;" parent="1" source="wWt6oeYKXyy8oI-9NvCh-1" target="wWt6oeYKXyy8oI-9NvCh-3" edge="1">
          <mxGeometry relative="1" as="geometry" />
        </mxCell>
        <mxCell id="wWt6oeYKXyy8oI-9NvCh-6" value="" style="edgeStyle=orthogonalEdgeStyle;rounded=0;orthogonalLoop=1;jettySize=auto;html=1;exitX=0.75;exitY=1;exitDx=0;exitDy=0;" parent="1" source="wWt6oeYKXyy8oI-9NvCh-1" target="wWt6oeYKXyy8oI-9NvCh-5" edge="1">
          <mxGeometry relative="1" as="geometry" />
        </mxCell>
        <mxCell id="wWt6oeYKXyy8oI-9NvCh-1" value="Notifise&amp;nbsp;&lt;div&gt;Manger&lt;div&gt;KAFKA&lt;/div&gt;&lt;/div&gt;" style="rounded=0;whiteSpace=wrap;html=1;" parent="1" vertex="1">
          <mxGeometry x="480" y="130" width="120" height="60" as="geometry" />
        </mxCell>
        <mxCell id="wWt6oeYKXyy8oI-9NvCh-9" style="edgeStyle=orthogonalEdgeStyle;rounded=0;orthogonalLoop=1;jettySize=auto;html=1;" parent="1" source="wWt6oeYKXyy8oI-9NvCh-3" edge="1">
          <mxGeometry relative="1" as="geometry">
            <mxPoint x="540" y="350" as="targetPoint" />
          </mxGeometry>
        </mxCell>
        <mxCell id="wWt6oeYKXyy8oI-9NvCh-12" style="edgeStyle=orthogonalEdgeStyle;rounded=0;orthogonalLoop=1;jettySize=auto;html=1;entryX=0;entryY=0.25;entryDx=0;entryDy=0;" parent="1" source="wWt6oeYKXyy8oI-9NvCh-3" target="wWt6oeYKXyy8oI-9NvCh-10" edge="1">
          <mxGeometry relative="1" as="geometry" />
        </mxCell>
        <mxCell id="wWt6oeYKXyy8oI-9NvCh-3" value="Personalized Handler" style="rounded=0;whiteSpace=wrap;html=1;" parent="1" vertex="1">
          <mxGeometry x="370" y="280" width="120" height="60" as="geometry" />
        </mxCell>
        <mxCell id="wWt6oeYKXyy8oI-9NvCh-8" style="edgeStyle=orthogonalEdgeStyle;rounded=0;orthogonalLoop=1;jettySize=auto;html=1;" parent="1" source="wWt6oeYKXyy8oI-9NvCh-5" target="wWt6oeYKXyy8oI-9NvCh-7" edge="1">
          <mxGeometry relative="1" as="geometry" />
        </mxCell>
        <mxCell id="wWt6oeYKXyy8oI-9NvCh-11" style="edgeStyle=orthogonalEdgeStyle;rounded=0;orthogonalLoop=1;jettySize=auto;html=1;entryX=1;entryY=0.5;entryDx=0;entryDy=0;" parent="1" source="wWt6oeYKXyy8oI-9NvCh-5" target="wWt6oeYKXyy8oI-9NvCh-10" edge="1">
          <mxGeometry relative="1" as="geometry" />
        </mxCell>
        <mxCell id="9xahVNBNEVQ9njGCvMCo-3" style="edgeStyle=orthogonalEdgeStyle;rounded=0;orthogonalLoop=1;jettySize=auto;html=1;" edge="1" parent="1" source="wWt6oeYKXyy8oI-9NvCh-5" target="9xahVNBNEVQ9njGCvMCo-1">
          <mxGeometry relative="1" as="geometry" />
        </mxCell>
        <mxCell id="uTDoMGG9GF4xLGnv7HvY-4" value="manage&lt;div&gt;Ratelimit&lt;/div&gt;" style="edgeLabel;html=1;align=center;verticalAlign=middle;resizable=0;points=[];" vertex="1" connectable="0" parent="9xahVNBNEVQ9njGCvMCo-3">
          <mxGeometry x="-0.25" y="3" relative="1" as="geometry">
            <mxPoint as="offset" />
          </mxGeometry>
        </mxCell>
        <mxCell id="wWt6oeYKXyy8oI-9NvCh-5" value="Bulk Handler" style="rounded=0;whiteSpace=wrap;html=1;" parent="1" vertex="1">
          <mxGeometry x="580" y="280" width="120" height="60" as="geometry" />
        </mxCell>
        <mxCell id="wWt6oeYKXyy8oI-9NvCh-7" value="USER REPO" style="shape=cylinder3;whiteSpace=wrap;html=1;boundedLbl=1;backgroundOutline=1;size=15;" parent="1" vertex="1">
          <mxGeometry x="510" y="350" width="60" height="80" as="geometry" />
        </mxCell>
        <mxCell id="wWt6oeYKXyy8oI-9NvCh-14" value="" style="edgeStyle=orthogonalEdgeStyle;rounded=0;orthogonalLoop=1;jettySize=auto;html=1;exitX=0;exitY=0.75;exitDx=0;exitDy=0;" parent="1" source="wWt6oeYKXyy8oI-9NvCh-10" target="wWt6oeYKXyy8oI-9NvCh-13" edge="1">
          <mxGeometry relative="1" as="geometry" />
        </mxCell>
        <mxCell id="_ANRzIK_AyOpb8XK70m3-4" style="edgeStyle=orthogonalEdgeStyle;rounded=0;orthogonalLoop=1;jettySize=auto;html=1;" edge="1" parent="1" source="wWt6oeYKXyy8oI-9NvCh-10" target="_ANRzIK_AyOpb8XK70m3-1">
          <mxGeometry relative="1" as="geometry" />
        </mxCell>
        <mxCell id="wWt6oeYKXyy8oI-9NvCh-10" value="Notiwise&amp;nbsp;&lt;div&gt;processor&lt;br&gt;&lt;div&gt;KAFKA&lt;/div&gt;&lt;/div&gt;" style="rounded=0;whiteSpace=wrap;html=1;" parent="1" vertex="1">
          <mxGeometry x="490" y="460" width="120" height="60" as="geometry" />
        </mxCell>
        <mxCell id="wWt6oeYKXyy8oI-9NvCh-13" value="" style="rounded=0;whiteSpace=wrap;html=1;" parent="1" vertex="1">
          <mxGeometry x="240" y="400" width="170" height="180" as="geometry" />
        </mxCell>
        <mxCell id="wWt6oeYKXyy8oI-9NvCh-19" style="edgeStyle=orthogonalEdgeStyle;rounded=0;orthogonalLoop=1;jettySize=auto;html=1;" parent="1" source="wWt6oeYKXyy8oI-9NvCh-15" target="wWt6oeYKXyy8oI-9NvCh-18" edge="1">
          <mxGeometry relative="1" as="geometry" />
        </mxCell>
        <mxCell id="wWt6oeYKXyy8oI-9NvCh-15" value="Application Handler" style="rounded=0;whiteSpace=wrap;html=1;" parent="1" vertex="1">
          <mxGeometry x="261" y="410" width="120" height="40" as="geometry" />
        </mxCell>
        <mxCell id="wWt6oeYKXyy8oI-9NvCh-16" value="Email" style="rounded=0;whiteSpace=wrap;html=1;" parent="1" vertex="1">
          <mxGeometry x="265" y="470" width="120" height="40" as="geometry" />
        </mxCell>
        <mxCell id="wWt6oeYKXyy8oI-9NvCh-17" value="Push" style="rounded=0;whiteSpace=wrap;html=1;" parent="1" vertex="1">
          <mxGeometry x="265" y="528" width="120" height="40" as="geometry" />
        </mxCell>
        <mxCell id="wWt6oeYKXyy8oI-9NvCh-18" value="Notifications" style="shape=cylinder3;whiteSpace=wrap;html=1;boundedLbl=1;backgroundOutline=1;size=15;" parent="1" vertex="1">
          <mxGeometry x="75" y="390" width="70" height="80" as="geometry" />
        </mxCell>
        <mxCell id="wWt6oeYKXyy8oI-9NvCh-21" style="edgeStyle=orthogonalEdgeStyle;rounded=0;orthogonalLoop=1;jettySize=auto;html=1;" parent="1" source="wWt6oeYKXyy8oI-9NvCh-20" target="wWt6oeYKXyy8oI-9NvCh-18" edge="1">
          <mxGeometry relative="1" as="geometry" />
        </mxCell>
        <mxCell id="wWt6oeYKXyy8oI-9NvCh-20" value="Notification&amp;nbsp;&lt;div&gt;Engine API&lt;/div&gt;" style="rounded=0;whiteSpace=wrap;html=1;" parent="1" vertex="1">
          <mxGeometry x="50" y="250" width="120" height="60" as="geometry" />
        </mxCell>
        <mxCell id="_ANRzIK_AyOpb8XK70m3-3" style="edgeStyle=orthogonalEdgeStyle;rounded=0;orthogonalLoop=1;jettySize=auto;html=1;" edge="1" parent="1" source="_ANRzIK_AyOpb8XK70m3-1" target="_ANRzIK_AyOpb8XK70m3-2">
          <mxGeometry relative="1" as="geometry" />
        </mxCell>
        <mxCell id="_ANRzIK_AyOpb8XK70m3-1" value="Analytics Handler" style="rounded=0;whiteSpace=wrap;html=1;" vertex="1" parent="1">
          <mxGeometry x="490" y="565" width="120" height="40" as="geometry" />
        </mxCell>
        <mxCell id="_ANRzIK_AyOpb8XK70m3-2" value="Notifications&lt;div&gt;Data&lt;/div&gt;&lt;div&gt;warehouse&lt;/div&gt;" style="shape=cylinder3;whiteSpace=wrap;html=1;boundedLbl=1;backgroundOutline=1;size=15;" vertex="1" parent="1">
          <mxGeometry x="690" y="545" width="70" height="80" as="geometry" />
        </mxCell>
        <mxCell id="9xahVNBNEVQ9njGCvMCo-1" value="USER/&lt;div&gt;Channel RateLImit&lt;/div&gt;" style="shape=cylinder3;whiteSpace=wrap;html=1;boundedLbl=1;backgroundOutline=1;size=15;" vertex="1" parent="1">
          <mxGeometry x="710" y="350" width="69" height="100" as="geometry" />
        </mxCell>
        <mxCell id="9xahVNBNEVQ9njGCvMCo-4" style="edgeStyle=orthogonalEdgeStyle;rounded=0;orthogonalLoop=1;jettySize=auto;html=1;entryX=0;entryY=0.5;entryDx=0;entryDy=0;entryPerimeter=0;" edge="1" parent="1" source="wWt6oeYKXyy8oI-9NvCh-3" target="9xahVNBNEVQ9njGCvMCo-1">
          <mxGeometry relative="1" as="geometry" />
        </mxCell>
        <mxCell id="uTDoMGG9GF4xLGnv7HvY-3" value="getUser" style="edgeLabel;html=1;align=center;verticalAlign=middle;resizable=0;points=[];" vertex="1" connectable="0" parent="9xahVNBNEVQ9njGCvMCo-4">
          <mxGeometry x="-0.7533" relative="1" as="geometry">
            <mxPoint as="offset" />
          </mxGeometry>
        </mxCell>
        <mxCell id="uTDoMGG9GF4xLGnv7HvY-1" value="Notification&amp;nbsp;&lt;div&gt;Admin Service&lt;/div&gt;" style="rounded=0;whiteSpace=wrap;html=1;" vertex="1" parent="1">
          <mxGeometry x="220" y="250" width="120" height="60" as="geometry" />
        </mxCell>
      </root>
    </mxGraphModel>
  </diagram>
  <diagram id="7B2Qn7XfIGoq7XBWWpAh" name="NotiwiseEvent">
    <mxGraphModel dx="1018" dy="777" grid="1" gridSize="10" guides="1" tooltips="1" connect="1" arrows="1" fold="1" page="1" pageScale="1" pageWidth="827" pageHeight="1169" math="0" shadow="0">
      <root>
        <mxCell id="0" />
        <mxCell id="1" parent="0" />
        <mxCell id="iWgm17-aro-Zlksaz3qF-1" value="" style="rounded=0;whiteSpace=wrap;html=1;" vertex="1" parent="1">
          <mxGeometry x="40" y="40" width="700" height="620" as="geometry" />
        </mxCell>
        <mxCell id="jXii0eQuHzXjbTZpkSLR-2" style="edgeStyle=orthogonalEdgeStyle;rounded=0;orthogonalLoop=1;jettySize=auto;html=1;" edge="1" parent="1" source="iWgm17-aro-Zlksaz3qF-2" target="BzkvdN_bawQ0SGhu5VLV-1">
          <mxGeometry relative="1" as="geometry" />
        </mxCell>
        <mxCell id="xxeiUzxYJo5glGt2GfwL-2" style="edgeStyle=orthogonalEdgeStyle;rounded=0;orthogonalLoop=1;jettySize=auto;html=1;" edge="1" parent="1" source="iWgm17-aro-Zlksaz3qF-2" target="xxeiUzxYJo5glGt2GfwL-1">
          <mxGeometry relative="1" as="geometry" />
        </mxCell>
        <mxCell id="iWgm17-aro-Zlksaz3qF-2" value="Notiwise&lt;div&gt;EventProcessor&lt;/div&gt;" style="rounded=0;whiteSpace=wrap;html=1;" vertex="1" parent="1">
          <mxGeometry x="220" y="160" width="120" height="60" as="geometry" />
        </mxCell>
        <mxCell id="jXii0eQuHzXjbTZpkSLR-1" value="Notiwise&lt;div&gt;Engine API&lt;/div&gt;" style="rounded=0;whiteSpace=wrap;html=1;" vertex="1" parent="1">
          <mxGeometry x="510" y="450" width="120" height="60" as="geometry" />
        </mxCell>
        <mxCell id="xxeiUzxYJo5glGt2GfwL-1" value="Notifications&lt;div&gt;Data&lt;/div&gt;&lt;div&gt;warehouse&lt;/div&gt;" style="shape=cylinder3;whiteSpace=wrap;html=1;boundedLbl=1;backgroundOutline=1;size=15;" vertex="1" parent="1">
          <mxGeometry x="245" y="310" width="70" height="80" as="geometry" />
        </mxCell>
        <mxCell id="BzkvdN_bawQ0SGhu5VLV-3" style="edgeStyle=orthogonalEdgeStyle;rounded=0;orthogonalLoop=1;jettySize=auto;html=1;" edge="1" parent="1" source="BzkvdN_bawQ0SGhu5VLV-1" target="BzkvdN_bawQ0SGhu5VLV-2">
          <mxGeometry relative="1" as="geometry" />
        </mxCell>
        <mxCell id="BzkvdN_bawQ0SGhu5VLV-1" value="Notiwise&amp;nbsp;&lt;div&gt;Event&lt;br&gt;&lt;div&gt;KAFKA&lt;/div&gt;&lt;/div&gt;" style="rounded=0;whiteSpace=wrap;html=1;" vertex="1" parent="1">
          <mxGeometry x="510" y="160" width="120" height="60" as="geometry" />
        </mxCell>
        <mxCell id="BzkvdN_bawQ0SGhu5VLV-4" style="edgeStyle=orthogonalEdgeStyle;rounded=0;orthogonalLoop=1;jettySize=auto;html=1;" edge="1" parent="1" source="BzkvdN_bawQ0SGhu5VLV-2" target="xxeiUzxYJo5glGt2GfwL-1">
          <mxGeometry relative="1" as="geometry" />
        </mxCell>
        <mxCell id="BzkvdN_bawQ0SGhu5VLV-5" style="edgeStyle=orthogonalEdgeStyle;rounded=0;orthogonalLoop=1;jettySize=auto;html=1;" edge="1" parent="1" source="BzkvdN_bawQ0SGhu5VLV-2" target="jXii0eQuHzXjbTZpkSLR-1">
          <mxGeometry relative="1" as="geometry" />
        </mxCell>
        <mxCell id="BzkvdN_bawQ0SGhu5VLV-2" value="Notiwise&lt;div&gt;Event Handler API&lt;/div&gt;" style="rounded=0;whiteSpace=wrap;html=1;" vertex="1" parent="1">
          <mxGeometry x="510" y="320" width="120" height="60" as="geometry" />
        </mxCell>
      </root>
    </mxGraphModel>
  </diagram>
</mxfile>
